<svg width="15" height="16" viewBox="0 0 15 16" fill="none" xmlns="http://www.w3.org/2000/svg">
<path fill-rule="evenodd" clip-rule="evenodd" d="M0.515137 8.98239C0.515137 5.10949 3.65246 1.97217 7.52536 1.97217C8.37516 1.97217 9.14357 2.10864 9.83587 2.31554C10.1312 2.4038 10.2991 2.71478 10.2108 3.01012C10.1226 3.30547 9.81158 3.47334 9.51624 3.38508C8.91367 3.205 8.25323 3.08845 7.52536 3.08845C4.26897 3.08845 1.63141 5.726 1.63141 8.98239C1.63141 12.2466 4.26938 14.8838 7.52536 14.8838C10.7818 14.8838 13.4193 12.2462 13.4193 8.98983C13.4193 7.77951 13.0524 6.65125 12.4265 5.71246C12.2555 5.45598 12.3249 5.10945 12.5813 4.93846C12.8378 4.76747 13.1843 4.83678 13.3553 5.09326C14.0988 6.20842 14.5356 7.55086 14.5356 8.98983C14.5356 12.8627 11.3983 16.0001 7.52536 16.0001C3.65204 16.0001 0.515137 12.8623 0.515137 8.98239Z" fill="#171717"/>
<path fill-rule="evenodd" clip-rule="evenodd" d="M8.0817 0.137164C8.31421 -0.0652259 8.66676 -0.0408142 8.86915 0.191689L11.0198 2.66238C11.2222 2.89489 11.1978 3.24744 10.9653 3.44983C10.7328 3.65222 10.3803 3.6278 10.1779 3.3953L8.02718 0.924606C7.82479 0.692103 7.8492 0.339553 8.0817 0.137164Z" fill="#171717"/>
<path fill-rule="evenodd" clip-rule="evenodd" d="M11.0496 2.6998C11.2313 2.94878 11.1768 3.29794 10.9279 3.47969L8.41997 5.31038C8.17099 5.49213 7.82183 5.43763 7.64008 5.18865C7.45834 4.93968 7.51284 4.59051 7.76182 4.40877L10.2697 2.57807C10.5187 2.39633 10.8679 2.45083 11.0496 2.6998Z" fill="#171717"/>
</svg>
