<svg width="11" height="15" viewBox="0 0 11 15" fill="none" xmlns="http://www.w3.org/2000/svg">
<path fill-rule="evenodd" clip-rule="evenodd" d="M5.3454 0C5.50131 0 5.65083 0.0619327 5.76107 0.172174L10.5186 4.92974C10.7482 5.1593 10.7482 5.5315 10.5186 5.76107C10.2891 5.99063 9.91687 5.99063 9.68731 5.76107L5.3454 1.41917L1.0035 5.76107C0.773937 5.99063 0.401739 5.99063 0.172174 5.76107C-0.0573912 5.5315 -0.0573912 5.1593 0.172174 4.92974L4.92974 0.172174C5.03998 0.0619327 5.1895 0 5.3454 0Z" fill="#171717"/>
<path fill-rule="evenodd" clip-rule="evenodd" d="M5.34541 0.133301C5.67006 0.133301 5.93324 0.396485 5.93324 0.721138V13.9122C5.93324 14.2369 5.67006 14.5001 5.34541 14.5001C5.02075 14.5001 4.75757 14.2369 4.75757 13.9122V0.721138C4.75757 0.396485 5.02075 0.133301 5.34541 0.133301Z" fill="#171717"/>
</svg>
