<svg width="42" height="42" viewBox="0 0 42 42" fill="none" xmlns="http://www.w3.org/2000/svg">
<path d="M33.4221 18.6169C26.653 14.5968 15.4874 14.2273 9.02531 16.1885C7.98733 16.5033 6.8901 15.9177 6.57583 14.8799C6.26137 13.8415 6.84647 12.7449 7.88483 12.4295C15.303 10.1778 27.6341 10.6127 35.427 15.2385C36.3606 15.7928 36.6664 16.9982 36.1133 17.9299C35.5596 18.8633 34.3531 19.1712 33.4219 18.6169M33.2004 24.571C32.7255 25.3417 31.7178 25.5834 30.9482 25.1102C25.305 21.6413 16.6993 20.6363 10.0227 22.663C9.15696 22.9244 8.24236 22.4365 7.97943 21.5721C7.85408 21.1566 7.89863 20.7083 8.10329 20.3256C8.30795 19.9429 8.65602 19.6569 9.0712 19.5304C16.6982 17.2158 26.1799 18.3367 32.6617 22.3201C33.4313 22.794 33.6736 23.8021 33.2004 24.571ZM30.6307 30.2892C30.5413 30.4361 30.4238 30.5639 30.2849 30.6654C30.1459 30.7668 29.9884 30.8398 29.8212 30.8803C29.6541 30.9207 29.4806 30.9278 29.3106 30.9011C29.1407 30.8745 28.9778 30.8145 28.831 30.7248C23.8997 27.7109 17.6927 27.0302 10.3828 28.7C10.2153 28.7383 10.0419 28.7432 9.87254 28.7145C9.70314 28.6857 9.54106 28.6239 9.39556 28.5325C9.25006 28.4412 9.12398 28.322 9.02454 28.1819C8.92509 28.0418 8.85422 27.8835 8.81598 27.7159C8.77747 27.5484 8.77239 27.3749 8.80103 27.2054C8.82968 27.0359 8.89148 26.8737 8.9829 26.7281C9.07432 26.5825 9.19357 26.4563 9.33381 26.3569C9.47405 26.2574 9.63253 26.1866 9.80018 26.1485C17.7995 24.3201 24.6612 25.107 30.1965 28.4893C30.3432 28.5789 30.4708 28.6966 30.5721 28.8356C30.6733 28.9745 30.7462 29.1321 30.7866 29.2992C30.8269 29.4664 30.8339 29.6398 30.8072 29.8097C30.7805 29.9796 30.7204 30.1425 30.6307 30.2892ZM20.9996 0C9.40221 0 0 9.40183 0 20.9996C0 32.5985 9.40221 42 20.9998 42C32.598 42 42 32.5985 42 20.9996C42 9.40202 32.598 0 20.9996 0Z" fill="#1ED660"/>
</svg>
